# xmcd CD database file
#
# Track frame offsets:
#	150
#	13761
#	25035
#	42494
#	57038
#	73314
#	87811
#	99238
#	108390
#	120587
#	135052
#	147205
#	159199
#	172311
#
# Disc length: 2468 seconds
#
# Revision: 0
# Processed by: cddbd v1.5.1PL0 Copyright (c) Steve Scherf et al.
# Submitted via: CDex 1.51
#
DISCID=b009a20e
DTITLE=Kenny Sultan - Guitar Blues
DYEAR=2002
DGENRE=Blues
TTITLE0=Lightnin' Strikes
TTITLE1=Cascade Rag
TTITLE2=If the Shoe Fits
TTITLE3=Suspicious Strut
TTITLE4=Binker's Blues
TTITLE5=Dirty Business Hurts
TTITLE6=Autp Pilot
TTITLE7=Funky Butt
TTITLE8=Nightcrawler
TTITLE9='Da Booze
TTITLE10=Ruff 'n Tuff
TTITLE11=Blakes's Blast
TTITLE12=Livin in the Country
TTITLE13=Banjo Space Blues
EXTD=YEAR: 2002
EXTT0=
EXTT1=
EXTT2=
EXTT3=
EXTT4=
EXTT5=
EXTT6=
EXTT7=
EXTT8=
EXTT9=
EXTT10=
EXTT11=
EXTT12=
EXTT13=
PLAYORDER=
